<svg width="108" height="108" viewBox="0 0 108 108" fill="none" xmlns="http://www.w3.org/2000/svg">
<circle cx="54" cy="54" r="54" fill="#EF5DA8"/>
<path d="M70.8312 41.6105H67.9091V35.7663C67.9091 27.7014 61.3636 21.1559 53.2987 21.1559C45.2338 21.1559 38.6883 27.7014 38.6883 35.7663V41.6105H35.7662C32.5519 41.6105 29.9221 44.2404 29.9221 47.4547V76.6754C29.9221 79.8897 32.5519 82.5196 35.7662 82.5196H70.8312C74.0455 82.5196 76.6753 79.8897 76.6753 76.6754V47.4547C76.6753 44.2404 74.0455 41.6105 70.8312 41.6105ZM53.2987 67.9092C50.0844 67.9092 47.4545 65.2793 47.4545 62.065C47.4545 58.8508 50.0844 56.2209 53.2987 56.2209C56.513 56.2209 59.1429 58.8508 59.1429 62.065C59.1429 65.2793 56.513 67.9092 53.2987 67.9092ZM62.3571 41.6105H44.2403V35.7663C44.2403 30.7696 48.3019 26.7079 53.2987 26.7079C58.2955 26.7079 62.3571 30.7696 62.3571 35.7663V41.6105Z" fill="white"/>
</svg>
