<svg width="109" height="109" viewBox="0 0 109 109" fill="none" xmlns="http://www.w3.org/2000/svg">
<path d="M54.5 0.75C24.83 0.75 0.75 24.83 0.75 54.5C0.75 84.17 24.83 108.25 54.5 108.25C84.17 108.25 108.25 84.17 108.25 54.5C108.25 24.83 84.17 0.75 54.5 0.75ZM54.5 16.875C63.4225 16.875 70.625 24.0775 70.625 33C70.625 41.9225 63.4225 49.125 54.5 49.125C45.5775 49.125 38.375 41.9225 38.375 33C38.375 24.0775 45.5775 16.875 54.5 16.875ZM54.5 93.2C41.0625 93.2 29.1838 86.32 22.25 75.8925C22.4112 65.1963 43.75 59.3375 54.5 59.3375C65.1963 59.3375 86.5888 65.1963 86.75 75.8925C79.8163 86.32 67.9375 93.2 54.5 93.2Z" fill="#FF961B"/>
</svg>
